# xmcd
#
# Track frame offsets: 
#        182
#        16227
#        29482
#        51495
#        63467
#        77502
#        84802
#        98165
#        110302
#        130822
#        142997
#        154272
#
# Disc length: 2189 seconds
#
# Revision: 5
# Processed by: cddbd v1.5.2PL0 Copyright (c) Steve Scherf et al.
# Submitted via: ExactAudioCopy v0.99pb4
#
DISCID=91088b0c
DTITLE=Freakwater - Feels Like The Third Time
DYEAR=1993
DGENRE=Country
TTITLE0=My Old Drunk Friend
TTITLE1=Put My Little Shoes Away
TTITLE2=Forgettable Song
TTITLE3=Crazy Man
TTITLE4=Pale Horse
TTITLE5=You Make Me
TTITLE6=You've Never Been This Far Before
TTITLE7=Dream Girl
TTITLE8=Sleeping On Hold
TTITLE9=Amelia Earhart
TTITLE10=Are You Ready
TTITLE11=Lullaby
EXTD=
EXTT0=
EXTT1=
EXTT2=
EXTT3=
EXTT4=
EXTT5=
EXTT6=
EXTT7=
EXTT8=
EXTT9=
EXTT10=
EXTT11=
PLAYORDER=
